<svg id="Layer_1" data-name="Layer 1" xmlns="http://www.w3.org/2000/svg" viewBox="0 0 1010.38 200.79"><defs><style>.cls-1{fill:#fff;}.cls-2{fill:#fff;}.cls-3{fill:none;}.cls-4{fill:#none;}</style></defs><title>Artboard 1</title><path class="cls-1" d="M225.73,100.4,247.18,88a46.2,46.2,0,0,0-11.59-20.07L214.14,80.33V55.55a46.69,46.69,0,0,0-23.17,0V80.33L169.52,67.95A46.19,46.19,0,0,0,157.93,88l21.45,12.39-21.43,12.38a46.33,46.33,0,0,0,11.6,20.06L191,120.47v24.77a46.53,46.53,0,0,0,23.17,0V120.47l21.42,12.37a46.33,46.33,0,0,0,11.6-20.06Z"/><path class="cls-1" d="M404.94,54.09H254.36c8.25,9.56,13,18.5,16,30.91A64.06,64.06,0,0,1,272,100.38a69.48,69.48,0,0,1-69.46,69.48v30.9a100.24,100.24,0,0,0,88.92-53.94h23.44l30.15-30.91H301.62a100.58,100.58,0,0,0,1.22-15.4A97.06,97.06,0,0,0,301.7,85h73.23Z"/><path class="cls-2" d="M113.42,54.08H0L30,85h73.29a87.42,87.42,0,0,0-1.14,15.1,95.69,95.69,0,0,0,1.23,15.8H60.06l30,30.91h60.78a69.2,69.2,0,0,1-16.05-30.91,66.08,66.08,0,0,1-1.74-15.52,69.26,69.26,0,0,1,1.79-15.7c2.88-12.52,10.91-26.18,20.2-35A69.21,69.21,0,0,1,202.58,30.9V0C161.15,0,128.65,24.71,113.42,54.08Z"/><path class="cls-3" d="M204.36,77.37V88.11a5,5,0,0,1,0,9.25v.71a5,5,0,0,1,0,9.25V108a5,5,0,0,1,0,9.25v6.28a23.17,23.17,0,0,0,0-46.18Z"/><path class="cls-3" d="M197.57,107.84a5,5,0,0,1,3.16-4.63v-.55a5,5,0,0,1,0-9.25v-.71a5,5,0,0,1,0-9.25V77.38a23.17,23.17,0,0,0,0,46.17V112.47A5,5,0,0,1,197.57,107.84Z"/><path class="cls-4" d="M207.51,112.65a5,5,0,0,0-3.16-4.63v-.71a5,5,0,0,0,0-9.25v-.71a5,5,0,0,0,0-9.25V77.37c-.59,0-1.18-.09-1.78-.09s-1.23,0-1.84.09v6.08a5,5,0,0,0,0,9.25v.71a5,5,0,0,0,0,9.25v.55a5,5,0,0,0,0,9.25v11.08c.61,0,1.22.09,1.84.09s1.19,0,1.78-.09v-6.28A5,5,0,0,0,207.51,112.65Z"/><path class="cls-1" d="M576.74,70.09h-4.23V65.76h4.23V57h5.2v8.78h7.86v4.33h-7.86V83.33q0,3.24,1,4.45A3.51,3.51,0,0,0,585.81,89a5.82,5.82,0,0,0,2.48-.46,7.65,7.65,0,0,0,2-1.39l2.37,3.18A9.93,9.93,0,0,1,585,93.38q-4.28,0-6.27-2.31t-2-7.22Z"/><path class="cls-1" d="M619.7,88.7A16.32,16.32,0,0,1,618.32,90a11.72,11.72,0,0,1-2.4,1.56,18.35,18.35,0,0,1-3.47,1.3,17.15,17.15,0,0,1-4.54.55,15.27,15.27,0,0,1-5.72-1,12.66,12.66,0,0,1-4.45-2.95,13.21,13.21,0,0,1-2.86-4.56,16.47,16.47,0,0,1-1-5.89,15.31,15.31,0,0,1,1-5.52,13.09,13.09,0,0,1,12.42-8.52,12.46,12.46,0,0,1,6,1.33,11.87,11.87,0,0,1,4.07,3.52,15.12,15.12,0,0,1,2.34,5,22.94,22.94,0,0,1,.75,5.89H599.19A8.1,8.1,0,0,0,600,84a8.31,8.31,0,0,0,1.94,2.6,9.35,9.35,0,0,0,2.77,1.73A8.65,8.65,0,0,0,608,89a12,12,0,0,0,5.61-1.16,11.47,11.47,0,0,0,3.18-2.25ZM615,76.85a8.71,8.71,0,0,0-2.2-5.32,7.06,7.06,0,0,0-5.55-2.2A8.3,8.3,0,0,0,604,70a8,8,0,0,0-2.51,1.68,7.51,7.51,0,0,0-1.62,2.4,7.89,7.89,0,0,0-.64,2.8Z"/><path class="cls-1" d="M625.68,54.09h5.2V92.63h-5.2Z"/><path class="cls-1" d="M639.38,85.87a10.9,10.9,0,0,0,3.47,2.31,11.79,11.79,0,0,0,4.68.87,9.93,9.93,0,0,0,4.33-.84,2.76,2.76,0,0,0,1.73-2.63,3.19,3.19,0,0,0-.38-1.59A3.33,3.33,0,0,0,652,82.8a11,11,0,0,0-2.37-1q-1.47-.43-3.67-1a22.61,22.61,0,0,1-3.09-.92,10.26,10.26,0,0,1-2.75-1.53,7.57,7.57,0,0,1-2-2.31,6.65,6.65,0,0,1-.75-3.27,6.48,6.48,0,0,1,.9-3.44,8,8,0,0,1,2.4-2.49A11.5,11.5,0,0,1,644,65.41a14.55,14.55,0,0,1,3.9-.52,17.17,17.17,0,0,1,5.87.9,13.51,13.51,0,0,1,4.3,2.51l-2.83,3.58a10.39,10.39,0,0,0-3-1.85,11.09,11.09,0,0,0-4.25-.75,8.42,8.42,0,0,0-4,.81,2.79,2.79,0,0,0-1.5,2.66,2.74,2.74,0,0,0,2,2.57,33.18,33.18,0,0,0,5.23,1.59A32.39,32.39,0,0,1,653.28,78a10.93,10.93,0,0,1,2.89,1.56,7,7,0,0,1,2,2.34,7.19,7.19,0,0,1,.72,3.35,6.75,6.75,0,0,1-.92,3.55,8.12,8.12,0,0,1-2.49,2.57,11.62,11.62,0,0,1-3.58,1.56,16.88,16.88,0,0,1-4.22.52q-7.63,0-11.44-4.1Z"/><path class="cls-1" d="M688.68,88.7A16.32,16.32,0,0,1,687.29,90a11.72,11.72,0,0,1-2.4,1.56,18.35,18.35,0,0,1-3.47,1.3,17.15,17.15,0,0,1-4.54.55,15.27,15.27,0,0,1-5.72-1,12.66,12.66,0,0,1-4.45-2.95,13.21,13.21,0,0,1-2.86-4.56,16.47,16.47,0,0,1-1-5.89,15.31,15.31,0,0,1,1-5.52,13.09,13.09,0,0,1,12.42-8.52,12.46,12.46,0,0,1,6,1.33,11.87,11.87,0,0,1,4.07,3.52,15.12,15.12,0,0,1,2.34,5,22.94,22.94,0,0,1,.75,5.89H668.17a8.1,8.1,0,0,0,.78,3.29,8.31,8.31,0,0,0,1.94,2.6,9.35,9.35,0,0,0,2.77,1.73A8.65,8.65,0,0,0,677,89a12,12,0,0,0,5.61-1.16,11.47,11.47,0,0,0,3.18-2.25ZM684,76.85a8.71,8.71,0,0,0-2.2-5.32,7.06,7.06,0,0,0-5.55-2.2,8.3,8.3,0,0,0-3.32.64,8,8,0,0,0-2.51,1.68,7.51,7.51,0,0,0-1.62,2.4,7.89,7.89,0,0,0-.64,2.8Z"/><path class="cls-1" d="M694.76,71.59V68.5q0-1.3-.06-2.75h5l.17,4q.52-.69,1.27-1.53A8.71,8.71,0,0,1,703,66.74a11,11,0,0,1,2.57-1.16,11.06,11.06,0,0,1,3.32-.46q5.26,0,7.8,3.06t2.54,8.32V92.63H714V76.91q0-3.76-1.62-5.52a5.89,5.89,0,0,0-4.57-1.76,7,7,0,0,0-3.76.92,7.12,7.12,0,0,0-2.4,2.4,10.73,10.73,0,0,0-1.3,3.35,18.16,18.16,0,0,0-.41,3.84V92.63h-5.2Z"/><path class="cls-1" d="M766.28,151.16a9,9,0,0,1-4,3,13.51,13.51,0,0,1-5.06,1,13,13,0,0,1-3.32-.43,8.66,8.66,0,0,1-3-1.44,7.58,7.58,0,0,1-2.2-2.6,8.28,8.28,0,0,1-.84-3.9,8.67,8.67,0,0,1,3-6.93q3-2.6,8.75-2.6c.62,0,1.27,0,2,.06l2,.12,1.62.12c.46,0,.79.08,1,.12v-1a4.93,4.93,0,0,0-1.82-4.31,8.36,8.36,0,0,0-4.94-1.3,11.63,11.63,0,0,0-4.85.84,19.26,19.26,0,0,0-3,1.7l-2.43-3.52a12.65,12.65,0,0,1,1.68-1.16,14.41,14.41,0,0,1,2.31-1.07,18.79,18.79,0,0,1,3-.81,21,21,0,0,1,3.87-.32q5.2,0,8.18,2.51a8.82,8.82,0,0,1,3,7.14V152q0,1.42.06,2.4h-4.85Zm-.06-9.48c-.15,0-.45-.09-.9-.14s-1-.11-1.53-.14l-1.85-.12c-.66,0-1.29-.06-1.91-.06a10.11,10.11,0,0,0-3.55.52,6,6,0,0,0-2.14,1.3,4.13,4.13,0,0,0-1.07,1.73,6.26,6.26,0,0,0-.29,1.82,3.89,3.89,0,0,0,1.5,3.32,6.8,6.8,0,0,0,4.16,1.13,7.93,7.93,0,0,0,2.86-.52,8.4,8.4,0,0,0,2.4-1.39,7,7,0,0,0,1.68-2,4.86,4.86,0,0,0,.64-2.37Z"/><path class="cls-1" d="M777.78,133.37v-3.09q0-1.3-.06-2.75h5l.17,4a13.83,13.83,0,0,1,1.21-1.53,9.36,9.36,0,0,1,1.79-1.53,10,10,0,0,1,2.46-1.16,10.5,10.5,0,0,1,3.26-.46,9.85,9.85,0,0,1,5.17,1.24,8.41,8.41,0,0,1,3.21,3.61,17,17,0,0,1,4-3.38,10.7,10.7,0,0,1,5.81-1.47q5.2,0,7.69,3.09a12.86,12.86,0,0,1,2.48,8.29V154.4h-5.2V138.68q0-3.76-1.47-5.52a5.29,5.29,0,0,0-4.31-1.76,6.68,6.68,0,0,0-3,.66,7.92,7.92,0,0,0-2.37,1.76A7.72,7.72,0,0,0,802,136.4a8.78,8.78,0,0,0-.55,3.09V154.4h-5.2V138.68q0-3.76-1.47-5.52a5.22,5.22,0,0,0-4.25-1.76,6.52,6.52,0,0,0-3.58.92,7.32,7.32,0,0,0-2.34,2.4,10.25,10.25,0,0,0-1.27,3.38,19.65,19.65,0,0,0-.38,3.81V154.4h-5.2Z"/><path class="cls-1" d="M826.44,115.86h5.2v14.62a8.75,8.75,0,0,1,1.13-1.16,9.11,9.11,0,0,1,1.76-1.19,11,11,0,0,1,2.4-.9,13.55,13.55,0,0,1,8.32.72,11,11,0,0,1,3.84,2.95,12.61,12.61,0,0,1,2.34,4.42,18.41,18.41,0,0,1,.78,5.43,15.15,15.15,0,0,1-1.1,5.84,13.22,13.22,0,0,1-3.09,4.57,14.17,14.17,0,0,1-4.77,3,16.9,16.9,0,0,1-6.12,1.07,33.94,33.94,0,0,1-6.13-.52,24.59,24.59,0,0,1-4.56-1.21ZM831.58,150q.81.23,2,.49a17.46,17.46,0,0,0,3.5.26,10.72,10.72,0,0,0,4-.72,9.17,9.17,0,0,0,3.09-2,8.77,8.77,0,0,0,2-3.12,11,11,0,0,0,.69-4,14.37,14.37,0,0,0-.43-3.55,8.62,8.62,0,0,0-1.39-3,7.13,7.13,0,0,0-2.4-2.08,7.33,7.33,0,0,0-3.52-.78,7.76,7.76,0,0,0-3.32.66,7.26,7.26,0,0,0-2.37,1.73,6.9,6.9,0,0,0-1.42,2.48,9.31,9.31,0,0,0-.46,2.92Z"/><path class="cls-1" d="M857.34,127.53h5.2V143.3q0,3.81,1.56,5.52a5.8,5.8,0,0,0,4.51,1.7,6.89,6.89,0,0,0,3.73-.92,7.49,7.49,0,0,0,2.4-2.4,9.91,9.91,0,0,0,1.3-3.35,19.58,19.58,0,0,0,.38-3.84V127.53h5.2v24.13q0,1.3.06,2.75h-5l-.17-4a19.16,19.16,0,0,1-1.27,1.5,8.5,8.5,0,0,1-1.85,1.47,11.87,11.87,0,0,1-2.54,1.13,10.82,10.82,0,0,1-3.29.46q-5.26,0-7.74-3t-2.49-8.29Z"/><path class="cls-1" d="M888.22,115.86h5.2V154.4h-5.2Z"/><path class="cls-1" d="M917,151.16a9,9,0,0,1-4,3,13.51,13.51,0,0,1-5.06,1,13,13,0,0,1-3.32-.43,8.66,8.66,0,0,1-3-1.44,7.58,7.58,0,0,1-2.2-2.6,8.28,8.28,0,0,1-.84-3.9,8.67,8.67,0,0,1,3-6.93q3-2.6,8.75-2.6c.62,0,1.27,0,2,.06l2,.12,1.62.12c.46,0,.79.08,1,.12v-1a4.93,4.93,0,0,0-1.82-4.31,8.36,8.36,0,0,0-4.94-1.3,11.63,11.63,0,0,0-4.85.84,19.26,19.26,0,0,0-3,1.7l-2.43-3.52a12.65,12.65,0,0,1,1.68-1.16,14.41,14.41,0,0,1,2.31-1.07,18.79,18.79,0,0,1,3-.81,21,21,0,0,1,3.87-.32q5.2,0,8.18,2.51a8.82,8.82,0,0,1,3,7.14V152q0,1.42.06,2.4h-4.85Zm-.06-9.48c-.15,0-.45-.09-.9-.14s-1-.11-1.53-.14l-1.85-.12c-.66,0-1.29-.06-1.91-.06a10.11,10.11,0,0,0-3.55.52,6,6,0,0,0-2.14,1.3,4.13,4.13,0,0,0-1.07,1.73,6.26,6.26,0,0,0-.29,1.82,3.89,3.89,0,0,0,1.5,3.32,6.8,6.8,0,0,0,4.16,1.13,7.93,7.93,0,0,0,2.86-.52,8.4,8.4,0,0,0,2.4-1.39,7,7,0,0,0,1.68-2,4.86,4.86,0,0,0,.64-2.37Z"/><path class="cls-1" d="M928.54,133.37v-3.09q0-1.3-.06-2.75h5l.17,4q.52-.69,1.27-1.53a8.71,8.71,0,0,1,1.85-1.53,11,11,0,0,1,2.57-1.16,11.06,11.06,0,0,1,3.32-.46q5.26,0,7.8,3.06t2.54,8.32V154.4h-5.2V138.68q0-3.76-1.62-5.52a5.89,5.89,0,0,0-4.57-1.76,7,7,0,0,0-3.76.92,7.12,7.12,0,0,0-2.4,2.4,10.73,10.73,0,0,0-1.3,3.35,18.16,18.16,0,0,0-.41,3.84V154.4h-5.2Z"/><path class="cls-1" d="M960.7,147.64a10.9,10.9,0,0,0,3.47,2.31,11.79,11.79,0,0,0,4.68.87,9.93,9.93,0,0,0,4.33-.84,2.76,2.76,0,0,0,1.73-2.63,3.19,3.19,0,0,0-.38-1.59,3.33,3.33,0,0,0-1.27-1.18,11,11,0,0,0-2.37-1q-1.47-.43-3.67-1a22.61,22.61,0,0,1-3.09-.92,10.26,10.26,0,0,1-2.75-1.53,7.57,7.57,0,0,1-2-2.31,6.65,6.65,0,0,1-.75-3.27,6.48,6.48,0,0,1,.9-3.44,8,8,0,0,1,2.4-2.49,11.5,11.5,0,0,1,3.38-1.53,14.55,14.55,0,0,1,3.9-.52,17.17,17.17,0,0,1,5.87.9,13.51,13.51,0,0,1,4.3,2.51l-2.83,3.58a10.39,10.39,0,0,0-3-1.85,11.09,11.09,0,0,0-4.25-.75,8.42,8.42,0,0,0-4,.81,2.79,2.79,0,0,0-1.5,2.66,2.74,2.74,0,0,0,2,2.57,33.18,33.18,0,0,0,5.23,1.59,32.39,32.39,0,0,1,3.55,1.07,10.93,10.93,0,0,1,2.89,1.56,7,7,0,0,1,2,2.34,7.19,7.19,0,0,1,.72,3.35,6.75,6.75,0,0,1-.92,3.55,8.12,8.12,0,0,1-2.49,2.57,11.62,11.62,0,0,1-3.58,1.56,16.88,16.88,0,0,1-4.22.52q-7.63,0-11.44-4.1Z"/><path class="cls-1" d="M1009.69,150.47a16.32,16.32,0,0,1-1.39,1.33,11.72,11.72,0,0,1-2.4,1.56,18.35,18.35,0,0,1-3.47,1.3,17.15,17.15,0,0,1-4.54.55,15.27,15.27,0,0,1-5.72-1,12.66,12.66,0,0,1-4.45-2.95,13.21,13.21,0,0,1-2.86-4.56,16.47,16.47,0,0,1-1-5.89,15.31,15.31,0,0,1,1-5.52,13.09,13.09,0,0,1,12.42-8.52,12.46,12.46,0,0,1,6,1.33,11.87,11.87,0,0,1,4.07,3.52,15.12,15.12,0,0,1,2.34,5,22.94,22.94,0,0,1,.75,5.89H989.17a8.1,8.1,0,0,0,.78,3.29,8.31,8.31,0,0,0,1.94,2.6,9.35,9.35,0,0,0,2.77,1.73,8.65,8.65,0,0,0,3.29.64,12,12,0,0,0,5.61-1.16,11.47,11.47,0,0,0,3.18-2.25ZM1005,138.62a8.71,8.71,0,0,0-2.2-5.32,7.06,7.06,0,0,0-5.55-2.2,8.3,8.3,0,0,0-3.32.64,8,8,0,0,0-2.51,1.68,7.51,7.51,0,0,0-1.62,2.4,7.89,7.89,0,0,0-.64,2.8Z"/><path class="cls-1" d="M489,83.27q.81.92,1.82,1.88a12.72,12.72,0,0,0,2.28,1.7,12.45,12.45,0,0,0,2.83,1.21,11.94,11.94,0,0,0,3.41.46,9.2,9.2,0,0,0,6-1.73,5.71,5.71,0,0,0,2.14-4.68A5.32,5.32,0,0,0,505,77.34a21.12,21.12,0,0,0-7-2.57,21.32,21.32,0,0,1-4.51-1.44A12.81,12.81,0,0,1,490,71a9.88,9.88,0,0,1-2.28-3.21,10.06,10.06,0,0,1-.81-4.13,10.24,10.24,0,0,1,.81-4,9.35,9.35,0,0,1,2.43-3.35,12.11,12.11,0,0,1,4-2.31,16.63,16.63,0,0,1,5.61-.87,17.31,17.31,0,0,1,4.88.61,15.19,15.19,0,0,1,3.5,1.47A10.75,10.75,0,0,1,510.49,57q.87.92,1.33,1.5l-3.7,3.41q-.35-.4-1-1.07a9.82,9.82,0,0,0-1.76-1.3,11.44,11.44,0,0,0-2.49-1.07,11.17,11.17,0,0,0-3.26-.43,9.19,9.19,0,0,0-3.18.49,6.72,6.72,0,0,0-2.2,1.27,4.84,4.84,0,0,0-1.27,1.76,5.13,5.13,0,0,0-.4,2,4.69,4.69,0,0,0,.61,2.46,5.75,5.75,0,0,0,1.76,1.79,11.31,11.31,0,0,0,2.86,1.33q1.7.55,3.9,1.07a29.68,29.68,0,0,1,4.19,1.36,13,13,0,0,1,3.67,2.25,10.34,10.34,0,0,1,2.57,3.47,11.81,11.81,0,0,1,1,5,10.06,10.06,0,0,1-1,4.56,11.26,11.26,0,0,1-2.86,3.61,13.14,13.14,0,0,1-4.3,2.37,16.75,16.75,0,0,1-5.37.84,18,18,0,0,1-4.94-.64,20.13,20.13,0,0,1-4-1.62,17.24,17.24,0,0,1-3.18-2.17,15.4,15.4,0,0,1-2.23-2.34Z"/><path class="cls-1" d="M539.46,55.13h5.84V61h-5.84Zm.35,10.63H545V92.63h-5.2Z"/><path class="cls-1" d="M487.34,115.86h5.61L514,146V115.86h5.43V154.4h-5.55l-21.09-30.17V154.4h-5.43Z"/><path class="cls-1" d="M539.24,155.21a14.23,14.23,0,0,1-5.72-1.13A13.6,13.6,0,0,1,529,151a14.61,14.61,0,0,1-2.95-4.54,14.77,14.77,0,0,1,0-11,14.63,14.63,0,0,1,2.95-4.54,13.63,13.63,0,0,1,4.48-3.09,14.24,14.24,0,0,1,5.72-1.13,14.1,14.1,0,0,1,5.66,1.13,14,14,0,0,1,4.51,3.09,14.38,14.38,0,0,1,3,4.54,14.46,14.46,0,0,1-3,15.57,13.92,13.92,0,0,1-4.51,3.09A14.08,14.08,0,0,1,539.24,155.21Zm0-4.51a8.28,8.28,0,0,0,3.76-.84,8.89,8.89,0,0,0,2.83-2.2,9.55,9.55,0,0,0,1.76-3.12,11,11,0,0,0,.61-3.61,10.86,10.86,0,0,0-.61-3.55,9.64,9.64,0,0,0-1.79-3.15A9.12,9.12,0,0,0,543,132a8.11,8.11,0,0,0-3.73-.84,8.3,8.3,0,0,0-3.76.84,8.88,8.88,0,0,0-2.83,2.2,9.55,9.55,0,0,0-1.76,3.12,11,11,0,0,0-.61,3.61,10.77,10.77,0,0,0,.61,3.58,9.67,9.67,0,0,0,1.79,3.12,9.13,9.13,0,0,0,2.83,2.23A8.1,8.1,0,0,0,539.24,150.7Z"/><path class="cls-1" d="M558.66,133V130.1q0-1.24-.06-2.57h5l.17,4.33a13.74,13.74,0,0,1,1.21-1.53,9,9,0,0,1,1.82-1.53,11.46,11.46,0,0,1,2.48-1.18,10,10,0,0,1,3.26-.49,10.22,10.22,0,0,1,1.59.12,7.54,7.54,0,0,1,1.36.35l-1.16,4.85a7.68,7.68,0,0,0-8.21,2,8.57,8.57,0,0,0-1.65,2.63,8.39,8.39,0,0,0-.61,3.18V154.4h-5.2Z"/><path class="cls-1" d="M580.44,147.64A10.9,10.9,0,0,0,583.9,150a11.79,11.79,0,0,0,4.68.87,9.93,9.93,0,0,0,4.33-.84,2.76,2.76,0,0,0,1.73-2.63,3.19,3.19,0,0,0-.38-1.59,3.33,3.33,0,0,0-1.27-1.18,11,11,0,0,0-2.37-1q-1.47-.43-3.67-1a22.61,22.61,0,0,1-3.09-.92,10.26,10.26,0,0,1-2.75-1.53,7.57,7.57,0,0,1-2-2.31,6.65,6.65,0,0,1-.75-3.27,6.48,6.48,0,0,1,.9-3.44,8,8,0,0,1,2.4-2.49,11.5,11.5,0,0,1,3.38-1.53,14.55,14.55,0,0,1,3.9-.52,17.17,17.17,0,0,1,5.87.9,13.51,13.51,0,0,1,4.3,2.51l-2.83,3.58a10.39,10.39,0,0,0-3-1.85,11.09,11.09,0,0,0-4.25-.75,8.42,8.42,0,0,0-4,.81,2.79,2.79,0,0,0-1.5,2.66,2.74,2.74,0,0,0,2,2.57,33.18,33.18,0,0,0,5.23,1.59,32.39,32.39,0,0,1,3.55,1.07,10.93,10.93,0,0,1,2.89,1.56,7,7,0,0,1,2,2.34,7.19,7.19,0,0,1,.72,3.35,6.75,6.75,0,0,1-.92,3.55,8.12,8.12,0,0,1-2.49,2.57,11.62,11.62,0,0,1-3.58,1.56,16.88,16.88,0,0,1-4.22.52q-7.63,0-11.44-4.1Z"/><path class="cls-1" d="M605.06,115.86h5.2v22.71l11.27-11h6.24l-10.17,9.94,11.67,16.93h-6.18L614,140.94l-3.7,3.58v9.88h-5.2Z"/><path class="cls-1" d="M644.65,115.86h5.55v33.63h20.05v4.91h-25.6Z"/><path class="cls-1" d="M674.2,127.53h5.2V143.3q0,3.81,1.56,5.52a5.8,5.8,0,0,0,4.51,1.7,6.89,6.89,0,0,0,3.73-.92,7.49,7.49,0,0,0,2.4-2.4,9.91,9.91,0,0,0,1.3-3.35,19.58,19.58,0,0,0,.38-3.84V127.53h5.2v24.13q0,1.3.06,2.75h-5l-.17-4a19.16,19.16,0,0,1-1.27,1.5,8.5,8.5,0,0,1-1.85,1.47,11.87,11.87,0,0,1-2.54,1.13,10.82,10.82,0,0,1-3.29.46q-5.26,0-7.74-3t-2.49-8.29Z"/><path class="cls-1" d="M519.14,70.09H514.9V65.76h4.23V57h5.2v8.78h7.86v4.33h-7.86V83.33q0,3.24,1,4.45A3.51,3.51,0,0,0,528.21,89a5.82,5.82,0,0,0,2.48-.46,7.65,7.65,0,0,0,2-1.39L535,90.32a9.93,9.93,0,0,1-7.63,3.06q-4.28,0-6.27-2.31t-2-7.22Z"/><path class="cls-1" d="M729.38,131.86h-4.23v-4.33h4.23v-8.78h5.2v8.78h7.86v4.33h-7.86V145.1q0,3.24,1,4.45a3.51,3.51,0,0,0,2.86,1.21,5.82,5.82,0,0,0,2.48-.46,7.65,7.65,0,0,0,2-1.39l2.37,3.18a9.93,9.93,0,0,1-7.63,3.06q-4.28,0-6.27-2.31t-2-7.22Z"/><path class="cls-1" d="M565.17,53.1a10.4,10.4,0,0,0-3.53.61,8.2,8.2,0,0,0-3,1.88,9.14,9.14,0,0,0-2.08,3.26,12.89,12.89,0,0,0-.78,4.71v2.2h-4.2v4.33h4.2V92.63H561V70.09h7.69V65.76H561V64q0-3.52,1.36-5A4.72,4.72,0,0,1,566,57.61a9.31,9.31,0,0,1,3.48.64V54A11.26,11.26,0,0,0,565.17,53.1Z"/><path class="cls-1" d="M717.94,114.87a10.4,10.4,0,0,0-3.53.61,8.2,8.2,0,0,0-3,1.88,9.14,9.14,0,0,0-2.08,3.26,12.89,12.89,0,0,0-.78,4.71v2.2h-4.2v4.33h4.2V154.4h5.2V131.86h7.69v-4.33h-7.69V125.8q0-3.52,1.36-5a4.72,4.72,0,0,1,3.61-1.44,9.31,9.31,0,0,1,3.48.64v-4.24A11.26,11.26,0,0,0,717.94,114.87Z"/></svg>